<?xml version="1.0" encoding="utf-8" standalone="no"?>
<!DOCTYPE svg PUBLIC "-//W3C//DTD SVG 1.1//EN"
  "http://www.w3.org/Graphics/SVG/1.1/DTD/svg11.dtd">
<!-- Created with matplotlib (https://matplotlib.org/) -->
<svg height="345.6pt" version="1.1" viewBox="0 0 460.8 345.6" width="460.8pt" xmlns="http://www.w3.org/2000/svg" xmlns:xlink="http://www.w3.org/1999/xlink">
 <defs>
  <style type="text/css">
*{stroke-linecap:butt;stroke-linejoin:round;}
  </style>
 </defs>
 <g id="figure_1">
  <g id="patch_1">
   <path d="M 0 345.6 
L 460.8 345.6 
L 460.8 0 
L 0 0 
z
" style="fill:#ffffff;"/>
  </g>
  <g id="axes_1">
   <g id="patch_2">
    <path d="M 82.87 312.34 
L 377.93 312.34 
L 377.93 17.28 
L 82.87 17.28 
z
" style="fill:#eaeaf2;"/>
   </g>
   <g id="matplotlib.axis_1">
    <g id="xtick_1">
     <g id="line2d_1">
      <path clip-path="url(#p593a096737)" d="M 82.87 312.34 
L 82.87 17.28 
" style="fill:none;stroke:#ffffff;stroke-linecap:round;"/>
     </g>
     <g id="text_1">
      <!-- −600 -->
      <defs>
       <path d="M 10.59375 35.5 
L 73.1875 35.5 
L 73.1875 27.203125 
L 10.59375 27.203125 
z
" id="DejaVuSans-8722"/>
       <path d="M 33.015625 40.375 
Q 26.375 40.375 22.484375 35.828125 
Q 18.609375 31.296875 18.609375 23.390625 
Q 18.609375 15.53125 22.484375 10.953125 
Q 26.375 6.390625 33.015625 6.390625 
Q 39.65625 6.390625 43.53125 10.953125 
Q 47.40625 15.53125 47.40625 23.390625 
Q 47.40625 31.296875 43.53125 35.828125 
Q 39.65625 40.375 33.015625 40.375 
z
M 52.59375 71.296875 
L 52.59375 62.3125 
Q 48.875 64.0625 45.09375 64.984375 
Q 41.3125 65.921875 37.59375 65.921875 
Q 27.828125 65.921875 22.671875 59.328125 
Q 17.53125 52.734375 16.796875 39.40625 
Q 19.671875 43.65625 24.015625 45.921875 
Q 28.375 48.1875 33.59375 48.1875 
Q 44.578125 48.1875 50.953125 41.515625 
Q 57.328125 34.859375 57.328125 23.390625 
Q 57.328125 12.15625 50.6875 5.359375 
Q 44.046875 -1.421875 33.015625 -1.421875 
Q 20.359375 -1.421875 13.671875 8.265625 
Q 6.984375 17.96875 6.984375 36.375 
Q 6.984375 53.65625 15.1875 63.9375 
Q 23.390625 74.21875 37.203125 74.21875 
Q 40.921875 74.21875 44.703125 73.484375 
Q 48.484375 72.75 52.59375 71.296875 
z
" id="DejaVuSans-54"/>
       <path d="M 31.78125 66.40625 
Q 24.171875 66.40625 20.328125 58.90625 
Q 16.5 51.421875 16.5 36.375 
Q 16.5 21.390625 20.328125 13.890625 
Q 24.171875 6.390625 31.78125 6.390625 
Q 39.453125 6.390625 43.28125 13.890625 
Q 47.125 21.390625 47.125 36.375 
Q 47.125 51.421875 43.28125 58.90625 
Q 39.453125 66.40625 31.78125 66.40625 
z
M 31.78125 74.21875 
Q 44.046875 74.21875 50.515625 64.515625 
Q 56.984375 54.828125 56.984375 36.375 
Q 56.984375 17.96875 50.515625 8.265625 
Q 44.046875 -1.421875 31.78125 -1.421875 
Q 19.53125 -1.421875 13.0625 8.265625 
Q 6.59375 17.96875 6.59375 36.375 
Q 6.59375 54.828125 13.0625 64.515625 
Q 19.53125 74.21875 31.78125 74.21875 
z
" id="DejaVuSans-48"/>
      </defs>
      <g style="fill:#262626;" transform="translate(67.763047 330.198281)scale(0.11 -0.11)">
       <use xlink:href="#DejaVuSans-8722"/>
       <use x="83.789062" xlink:href="#DejaVuSans-54"/>
       <use x="147.412109" xlink:href="#DejaVuSans-48"/>
       <use x="211.035156" xlink:href="#DejaVuSans-48"/>
      </g>
     </g>
    </g>
    <g id="xtick_2">
     <g id="line2d_2">
      <path clip-path="url(#p593a096737)" d="M 132.046667 312.34 
L 132.046667 17.28 
" style="fill:none;stroke:#ffffff;stroke-linecap:round;"/>
     </g>
     <g id="text_2">
      <!-- −400 -->
      <defs>
       <path d="M 37.796875 64.3125 
L 12.890625 25.390625 
L 37.796875 25.390625 
z
M 35.203125 72.90625 
L 47.609375 72.90625 
L 47.609375 25.390625 
L 58.015625 25.390625 
L 58.015625 17.1875 
L 47.609375 17.1875 
L 47.609375 0 
L 37.796875 0 
L 37.796875 17.1875 
L 4.890625 17.1875 
L 4.890625 26.703125 
z
" id="DejaVuSans-52"/>
      </defs>
      <g style="fill:#262626;" transform="translate(116.939714 330.198281)scale(0.11 -0.11)">
       <use xlink:href="#DejaVuSans-8722"/>
       <use x="83.789062" xlink:href="#DejaVuSans-52"/>
       <use x="147.412109" xlink:href="#DejaVuSans-48"/>
       <use x="211.035156" xlink:href="#DejaVuSans-48"/>
      </g>
     </g>
    </g>
    <g id="xtick_3">
     <g id="line2d_3">
      <path clip-path="url(#p593a096737)" d="M 181.223333 312.34 
L 181.223333 17.28 
" style="fill:none;stroke:#ffffff;stroke-linecap:round;"/>
     </g>
     <g id="text_3">
      <!-- −200 -->
      <defs>
       <path d="M 19.1875 8.296875 
L 53.609375 8.296875 
L 53.609375 0 
L 7.328125 0 
L 7.328125 8.296875 
Q 12.9375 14.109375 22.625 23.890625 
Q 32.328125 33.6875 34.8125 36.53125 
Q 39.546875 41.84375 41.421875 45.53125 
Q 43.3125 49.21875 43.3125 52.78125 
Q 43.3125 58.59375 39.234375 62.25 
Q 35.15625 65.921875 28.609375 65.921875 
Q 23.96875 65.921875 18.8125 64.3125 
Q 13.671875 62.703125 7.8125 59.421875 
L 7.8125 69.390625 
Q 13.765625 71.78125 18.9375 73 
Q 24.125 74.21875 28.421875 74.21875 
Q 39.75 74.21875 46.484375 68.546875 
Q 53.21875 62.890625 53.21875 53.421875 
Q 53.21875 48.921875 51.53125 44.890625 
Q 49.859375 40.875 45.40625 35.40625 
Q 44.1875 33.984375 37.640625 27.21875 
Q 31.109375 20.453125 19.1875 8.296875 
z
" id="DejaVuSans-50"/>
      </defs>
      <g style="fill:#262626;" transform="translate(166.11638 330.198281)scale(0.11 -0.11)">
       <use xlink:href="#DejaVuSans-8722"/>
       <use x="83.789062" xlink:href="#DejaVuSans-50"/>
       <use x="147.412109" xlink:href="#DejaVuSans-48"/>
       <use x="211.035156" xlink:href="#DejaVuSans-48"/>
      </g>
     </g>
    </g>
    <g id="xtick_4">
     <g id="line2d_4">
      <path clip-path="url(#p593a096737)" d="M 230.4 312.34 
L 230.4 17.28 
" style="fill:none;stroke:#ffffff;stroke-linecap:round;"/>
     </g>
     <g id="text_4">
      <!-- 0 -->
      <g style="fill:#262626;" transform="translate(226.900625 330.198281)scale(0.11 -0.11)">
       <use xlink:href="#DejaVuSans-48"/>
      </g>
     </g>
    </g>
    <g id="xtick_5">
     <g id="line2d_5">
      <path clip-path="url(#p593a096737)" d="M 279.576667 312.34 
L 279.576667 17.28 
" style="fill:none;stroke:#ffffff;stroke-linecap:round;"/>
     </g>
     <g id="text_5">
      <!-- 200 -->
      <g style="fill:#262626;" transform="translate(269.078542 330.198281)scale(0.11 -0.11)">
       <use xlink:href="#DejaVuSans-50"/>
       <use x="63.623047" xlink:href="#DejaVuSans-48"/>
       <use x="127.246094" xlink:href="#DejaVuSans-48"/>
      </g>
     </g>
    </g>
    <g id="xtick_6">
     <g id="line2d_6">
      <path clip-path="url(#p593a096737)" d="M 328.753333 312.34 
L 328.753333 17.28 
" style="fill:none;stroke:#ffffff;stroke-linecap:round;"/>
     </g>
     <g id="text_6">
      <!-- 400 -->
      <g style="fill:#262626;" transform="translate(318.255208 330.198281)scale(0.11 -0.11)">
       <use xlink:href="#DejaVuSans-52"/>
       <use x="63.623047" xlink:href="#DejaVuSans-48"/>
       <use x="127.246094" xlink:href="#DejaVuSans-48"/>
      </g>
     </g>
    </g>
    <g id="xtick_7">
     <g id="line2d_7">
      <path clip-path="url(#p593a096737)" d="M 377.93 312.34 
L 377.93 17.28 
" style="fill:none;stroke:#ffffff;stroke-linecap:round;"/>
     </g>
     <g id="text_7">
      <!-- 600 -->
      <g style="fill:#262626;" transform="translate(367.431875 330.198281)scale(0.11 -0.11)">
       <use xlink:href="#DejaVuSans-54"/>
       <use x="63.623047" xlink:href="#DejaVuSans-48"/>
       <use x="127.246094" xlink:href="#DejaVuSans-48"/>
      </g>
     </g>
    </g>
   </g>
   <g id="matplotlib.axis_2">
    <g id="ytick_1">
     <g id="line2d_8">
      <path clip-path="url(#p593a096737)" d="M 82.87 312.34 
L 377.93 312.34 
" style="fill:none;stroke:#ffffff;stroke-linecap:round;"/>
     </g>
     <g id="text_8">
      <!-- −600 -->
      <g style="fill:#262626;" transform="translate(43.156094 316.519141)scale(0.11 -0.11)">
       <use xlink:href="#DejaVuSans-8722"/>
       <use x="83.789062" xlink:href="#DejaVuSans-54"/>
       <use x="147.412109" xlink:href="#DejaVuSans-48"/>
       <use x="211.035156" xlink:href="#DejaVuSans-48"/>
      </g>
     </g>
    </g>
    <g id="ytick_2">
     <g id="line2d_9">
      <path clip-path="url(#p593a096737)" d="M 82.87 263.163333 
L 377.93 263.163333 
" style="fill:none;stroke:#ffffff;stroke-linecap:round;"/>
     </g>
     <g id="text_9">
      <!-- −400 -->
      <g style="fill:#262626;" transform="translate(43.156094 267.342474)scale(0.11 -0.11)">
       <use xlink:href="#DejaVuSans-8722"/>
       <use x="83.789062" xlink:href="#DejaVuSans-52"/>
       <use x="147.412109" xlink:href="#DejaVuSans-48"/>
       <use x="211.035156" xlink:href="#DejaVuSans-48"/>
      </g>
     </g>
    </g>
    <g id="ytick_3">
     <g id="line2d_10">
      <path clip-path="url(#p593a096737)" d="M 82.87 213.986667 
L 377.93 213.986667 
" style="fill:none;stroke:#ffffff;stroke-linecap:round;"/>
     </g>
     <g id="text_10">
      <!-- −200 -->
      <g style="fill:#262626;" transform="translate(43.156094 218.165807)scale(0.11 -0.11)">
       <use xlink:href="#DejaVuSans-8722"/>
       <use x="83.789062" xlink:href="#DejaVuSans-50"/>
       <use x="147.412109" xlink:href="#DejaVuSans-48"/>
       <use x="211.035156" xlink:href="#DejaVuSans-48"/>
      </g>
     </g>
    </g>
    <g id="ytick_4">
     <g id="line2d_11">
      <path clip-path="url(#p593a096737)" d="M 82.87 164.81 
L 377.93 164.81 
" style="fill:none;stroke:#ffffff;stroke-linecap:round;"/>
     </g>
     <g id="text_11">
      <!-- 0 -->
      <g style="fill:#262626;" transform="translate(66.37125 168.989141)scale(0.11 -0.11)">
       <use xlink:href="#DejaVuSans-48"/>
      </g>
     </g>
    </g>
    <g id="ytick_5">
     <g id="line2d_12">
      <path clip-path="url(#p593a096737)" d="M 82.87 115.633333 
L 377.93 115.633333 
" style="fill:none;stroke:#ffffff;stroke-linecap:round;"/>
     </g>
     <g id="text_12">
      <!-- 200 -->
      <g style="fill:#262626;" transform="translate(52.37375 119.812474)scale(0.11 -0.11)">
       <use xlink:href="#DejaVuSans-50"/>
       <use x="63.623047" xlink:href="#DejaVuSans-48"/>
       <use x="127.246094" xlink:href="#DejaVuSans-48"/>
      </g>
     </g>
    </g>
    <g id="ytick_6">
     <g id="line2d_13">
      <path clip-path="url(#p593a096737)" d="M 82.87 66.456667 
L 377.93 66.456667 
" style="fill:none;stroke:#ffffff;stroke-linecap:round;"/>
     </g>
     <g id="text_13">
      <!-- 400 -->
      <g style="fill:#262626;" transform="translate(52.37375 70.635807)scale(0.11 -0.11)">
       <use xlink:href="#DejaVuSans-52"/>
       <use x="63.623047" xlink:href="#DejaVuSans-48"/>
       <use x="127.246094" xlink:href="#DejaVuSans-48"/>
      </g>
     </g>
    </g>
    <g id="ytick_7">
     <g id="line2d_14">
      <path clip-path="url(#p593a096737)" d="M 82.87 17.28 
L 377.93 17.28 
" style="fill:none;stroke:#ffffff;stroke-linecap:round;"/>
     </g>
     <g id="text_14">
      <!-- 600 -->
      <g style="fill:#262626;" transform="translate(52.37375 21.459141)scale(0.11 -0.11)">
       <use xlink:href="#DejaVuSans-54"/>
       <use x="63.623047" xlink:href="#DejaVuSans-48"/>
       <use x="127.246094" xlink:href="#DejaVuSans-48"/>
      </g>
     </g>
    </g>
   </g>
   <g id="line2d_15">
    <defs>
     <path d="M 0 1.5 
C 0.397805 1.5 0.77937 1.341951 1.06066 1.06066 
C 1.341951 0.77937 1.5 0.397805 1.5 0 
C 1.5 -0.397805 1.341951 -0.77937 1.06066 -1.06066 
C 0.77937 -1.341951 0.397805 -1.5 0 -1.5 
C -0.397805 -1.5 -0.77937 -1.341951 -1.06066 -1.06066 
C -1.341951 -0.77937 -1.5 -0.397805 -1.5 0 
C -1.5 0.397805 -1.341951 0.77937 -1.06066 1.06066 
C -0.77937 1.341951 -0.397805 1.5 0 1.5 
z
" id="m4a8cdecb99" style="stroke:#4c72b0;"/>
    </defs>
    <g clip-path="url(#p593a096737)">
     <use style="fill:#4c72b0;stroke:#4c72b0;" x="163.27385" xlink:href="#m4a8cdecb99" y="286.030483"/>
     <use style="fill:#4c72b0;stroke:#4c72b0;" x="162.782083" xlink:href="#m4a8cdecb99" y="286.276367"/>
     <use style="fill:#4c72b0;stroke:#4c72b0;" x="162.782083" xlink:href="#m4a8cdecb99" y="286.276367"/>
     <use style="fill:#4c72b0;stroke:#4c72b0;" x="162.782083" xlink:href="#m4a8cdecb99" y="286.276367"/>
     <use style="fill:#4c72b0;stroke:#4c72b0;" x="162.782083" xlink:href="#m4a8cdecb99" y="286.276367"/>
     <use style="fill:#4c72b0;stroke:#4c72b0;" x="162.782083" xlink:href="#m4a8cdecb99" y="286.276367"/>
     <use style="fill:#4c72b0;stroke:#4c72b0;" x="162.782083" xlink:href="#m4a8cdecb99" y="286.276367"/>
     <use style="fill:#4c72b0;stroke:#4c72b0;" x="162.782083" xlink:href="#m4a8cdecb99" y="286.276367"/>
     <use style="fill:#4c72b0;stroke:#4c72b0;" x="162.782083" xlink:href="#m4a8cdecb99" y="286.276367"/>
     <use style="fill:#4c72b0;stroke:#4c72b0;" x="162.782083" xlink:href="#m4a8cdecb99" y="286.276367"/>
     <use style="fill:#4c72b0;stroke:#4c72b0;" x="162.782083" xlink:href="#m4a8cdecb99" y="286.276367"/>
     <use style="fill:#4c72b0;stroke:#4c72b0;" x="162.782083" xlink:href="#m4a8cdecb99" y="286.276367"/>
     <use style="fill:#4c72b0;stroke:#4c72b0;" x="162.782083" xlink:href="#m4a8cdecb99" y="286.276367"/>
     <use style="fill:#4c72b0;stroke:#4c72b0;" x="162.782083" xlink:href="#m4a8cdecb99" y="286.030483"/>
     <use style="fill:#4c72b0;stroke:#4c72b0;" x="162.782083" xlink:href="#m4a8cdecb99" y="286.030483"/>
     <use style="fill:#4c72b0;stroke:#4c72b0;" x="162.782083" xlink:href="#m4a8cdecb99" y="286.030483"/>
     <use style="fill:#4c72b0;stroke:#4c72b0;" x="162.782083" xlink:href="#m4a8cdecb99" y="286.030483"/>
     <use style="fill:#4c72b0;stroke:#4c72b0;" x="158.1103" xlink:href="#m4a8cdecb99" y="280.62105"/>
     <use style="fill:#4c72b0;stroke:#4c72b0;" x="158.1103" xlink:href="#m4a8cdecb99" y="280.62105"/>
     <use style="fill:#4c72b0;stroke:#4c72b0;" x="158.1103" xlink:href="#m4a8cdecb99" y="280.62105"/>
     <use style="fill:#4c72b0;stroke:#4c72b0;" x="157.618533" xlink:href="#m4a8cdecb99" y="271.277483"/>
     <use style="fill:#4c72b0;stroke:#4c72b0;" x="157.618533" xlink:href="#m4a8cdecb99" y="271.277483"/>
     <use style="fill:#4c72b0;stroke:#4c72b0;" x="157.618533" xlink:href="#m4a8cdecb99" y="271.277483"/>
     <use style="fill:#4c72b0;stroke:#4c72b0;" x="154.913817" xlink:href="#m4a8cdecb99" y="260.212733"/>
     <use style="fill:#4c72b0;stroke:#4c72b0;" x="154.913817" xlink:href="#m4a8cdecb99" y="260.212733"/>
     <use style="fill:#4c72b0;stroke:#4c72b0;" x="154.913817" xlink:href="#m4a8cdecb99" y="260.212733"/>
     <use style="fill:#4c72b0;stroke:#4c72b0;" x="154.913817" xlink:href="#m4a8cdecb99" y="251.606817"/>
     <use style="fill:#4c72b0;stroke:#4c72b0;" x="154.913817" xlink:href="#m4a8cdecb99" y="251.606817"/>
     <use style="fill:#4c72b0;stroke:#4c72b0;" x="154.913817" xlink:href="#m4a8cdecb99" y="251.606817"/>
     <use style="fill:#4c72b0;stroke:#4c72b0;" x="155.405583" xlink:href="#m4a8cdecb99" y="250.131517"/>
     <use style="fill:#4c72b0;stroke:#4c72b0;" x="155.405583" xlink:href="#m4a8cdecb99" y="250.131517"/>
     <use style="fill:#4c72b0;stroke:#4c72b0;" x="155.405583" xlink:href="#m4a8cdecb99" y="250.131517"/>
     <use style="fill:#4c72b0;stroke:#4c72b0;" x="155.405583" xlink:href="#m4a8cdecb99" y="250.131517"/>
     <use style="fill:#4c72b0;stroke:#4c72b0;" x="155.651467" xlink:href="#m4a8cdecb99" y="251.606817"/>
     <use style="fill:#4c72b0;stroke:#4c72b0;" x="155.651467" xlink:href="#m4a8cdecb99" y="251.606817"/>
     <use style="fill:#4c72b0;stroke:#4c72b0;" x="155.651467" xlink:href="#m4a8cdecb99" y="251.606817"/>
     <use style="fill:#4c72b0;stroke:#4c72b0;" x="161.79855" xlink:href="#m4a8cdecb99" y="257.262133"/>
     <use style="fill:#4c72b0;stroke:#4c72b0;" x="161.79855" xlink:href="#m4a8cdecb99" y="257.262133"/>
     <use style="fill:#4c72b0;stroke:#4c72b0;" x="161.79855" xlink:href="#m4a8cdecb99" y="257.262133"/>
     <use style="fill:#4c72b0;stroke:#4c72b0;" x="167.69975" xlink:href="#m4a8cdecb99" y="267.589233"/>
     <use style="fill:#4c72b0;stroke:#4c72b0;" x="167.69975" xlink:href="#m4a8cdecb99" y="267.589233"/>
     <use style="fill:#4c72b0;stroke:#4c72b0;" x="167.69975" xlink:href="#m4a8cdecb99" y="267.589233"/>
     <use style="fill:#4c72b0;stroke:#4c72b0;" x="171.633883" xlink:href="#m4a8cdecb99" y="270.29395"/>
     <use style="fill:#4c72b0;stroke:#4c72b0;" x="171.633883" xlink:href="#m4a8cdecb99" y="270.29395"/>
     <use style="fill:#4c72b0;stroke:#4c72b0;" x="171.633883" xlink:href="#m4a8cdecb99" y="270.29395"/>
     <use style="fill:#4c72b0;stroke:#4c72b0;" x="184.419817" xlink:href="#m4a8cdecb99" y="274.71985"/>
     <use style="fill:#4c72b0;stroke:#4c72b0;" x="184.419817" xlink:href="#m4a8cdecb99" y="274.71985"/>
     <use style="fill:#4c72b0;stroke:#4c72b0;" x="184.419817" xlink:href="#m4a8cdecb99" y="274.71985"/>
     <use style="fill:#4c72b0;stroke:#4c72b0;" x="211.712867" xlink:href="#m4a8cdecb99" y="282.342233"/>
     <use style="fill:#4c72b0;stroke:#4c72b0;" x="211.712867" xlink:href="#m4a8cdecb99" y="282.342233"/>
     <use style="fill:#4c72b0;stroke:#4c72b0;" x="211.712867" xlink:href="#m4a8cdecb99" y="282.342233"/>
     <use style="fill:#4c72b0;stroke:#4c72b0;" x="211.712867" xlink:href="#m4a8cdecb99" y="282.342233"/>
     <use style="fill:#4c72b0;stroke:#4c72b0;" x="245.153" xlink:href="#m4a8cdecb99" y="282.342233"/>
     <use style="fill:#4c72b0;stroke:#4c72b0;" x="245.153" xlink:href="#m4a8cdecb99" y="282.342233"/>
     <use style="fill:#4c72b0;stroke:#4c72b0;" x="245.153" xlink:href="#m4a8cdecb99" y="282.342233"/>
     <use style="fill:#4c72b0;stroke:#4c72b0;" x="252.775383" xlink:href="#m4a8cdecb99" y="264.638633"/>
     <use style="fill:#4c72b0;stroke:#4c72b0;" x="252.775383" xlink:href="#m4a8cdecb99" y="264.638633"/>
     <use style="fill:#4c72b0;stroke:#4c72b0;" x="252.775383" xlink:href="#m4a8cdecb99" y="264.638633"/>
     <use style="fill:#4c72b0;stroke:#4c72b0;" x="252.037733" xlink:href="#m4a8cdecb99" y="240.542067"/>
     <use style="fill:#4c72b0;stroke:#4c72b0;" x="252.037733" xlink:href="#m4a8cdecb99" y="240.542067"/>
     <use style="fill:#4c72b0;stroke:#4c72b0;" x="252.037733" xlink:href="#m4a8cdecb99" y="240.542067"/>
     <use style="fill:#4c72b0;stroke:#4c72b0;" x="260.397767" xlink:href="#m4a8cdecb99" y="208.085467"/>
     <use style="fill:#4c72b0;stroke:#4c72b0;" x="260.397767" xlink:href="#m4a8cdecb99" y="208.085467"/>
     <use style="fill:#4c72b0;stroke:#4c72b0;" x="260.397767" xlink:href="#m4a8cdecb99" y="208.085467"/>
     <use style="fill:#4c72b0;stroke:#4c72b0;" x="261.3813" xlink:href="#m4a8cdecb99" y="161.12175"/>
     <use style="fill:#4c72b0;stroke:#4c72b0;" x="261.3813" xlink:href="#m4a8cdecb99" y="161.12175"/>
     <use style="fill:#4c72b0;stroke:#4c72b0;" x="261.3813" xlink:href="#m4a8cdecb99" y="161.12175"/>
     <use style="fill:#4c72b0;stroke:#4c72b0;" x="261.3813" xlink:href="#m4a8cdecb99" y="161.12175"/>
     <use style="fill:#4c72b0;stroke:#4c72b0;" x="252.775383" xlink:href="#m4a8cdecb99" y="116.86275"/>
     <use style="fill:#4c72b0;stroke:#4c72b0;" x="252.775383" xlink:href="#m4a8cdecb99" y="116.86275"/>
     <use style="fill:#4c72b0;stroke:#4c72b0;" x="252.775383" xlink:href="#m4a8cdecb99" y="116.86275"/>
     <use style="fill:#4c72b0;stroke:#4c72b0;" x="256.21775" xlink:href="#m4a8cdecb99" y="53.178967"/>
     <use style="fill:#4c72b0;stroke:#4c72b0;" x="256.21775" xlink:href="#m4a8cdecb99" y="53.178967"/>
     <use style="fill:#4c72b0;stroke:#4c72b0;" x="256.21775" xlink:href="#m4a8cdecb99" y="53.178967"/>
     <use style="fill:#4c72b0;stroke:#4c72b0;" x="249.824783" xlink:href="#m4a8cdecb99" y="43.589517"/>
     <use style="fill:#4c72b0;stroke:#4c72b0;" x="249.824783" xlink:href="#m4a8cdecb99" y="43.589517"/>
     <use style="fill:#4c72b0;stroke:#4c72b0;" x="249.824783" xlink:href="#m4a8cdecb99" y="43.589517"/>
     <use style="fill:#4c72b0;stroke:#4c72b0;" x="231.13765" xlink:href="#m4a8cdecb99" y="67.4402"/>
     <use style="fill:#4c72b0;stroke:#4c72b0;" x="231.13765" xlink:href="#m4a8cdecb99" y="67.4402"/>
     <use style="fill:#4c72b0;stroke:#4c72b0;" x="231.13765" xlink:href="#m4a8cdecb99" y="67.4402"/>
     <use style="fill:#4c72b0;stroke:#4c72b0;" x="231.13765" xlink:href="#m4a8cdecb99" y="67.4402"/>
     <use style="fill:#4c72b0;stroke:#4c72b0;" x="206.549317" xlink:href="#m4a8cdecb99" y="111.6992"/>
     <use style="fill:#4c72b0;stroke:#4c72b0;" x="206.549317" xlink:href="#m4a8cdecb99" y="111.6992"/>
     <use style="fill:#4c72b0;stroke:#4c72b0;" x="206.549317" xlink:href="#m4a8cdecb99" y="111.6992"/>
     <use style="fill:#4c72b0;stroke:#4c72b0;" x="179.256267" xlink:href="#m4a8cdecb99" y="135.304"/>
     <use style="fill:#4c72b0;stroke:#4c72b0;" x="179.256267" xlink:href="#m4a8cdecb99" y="135.304"/>
     <use style="fill:#4c72b0;stroke:#4c72b0;" x="179.256267" xlink:href="#m4a8cdecb99" y="135.304"/>
     <use style="fill:#4c72b0;stroke:#4c72b0;" x="146.553783" xlink:href="#m4a8cdecb99" y="142.434617"/>
     <use style="fill:#4c72b0;stroke:#4c72b0;" x="146.553783" xlink:href="#m4a8cdecb99" y="142.434617"/>
     <use style="fill:#4c72b0;stroke:#4c72b0;" x="146.553783" xlink:href="#m4a8cdecb99" y="142.434617"/>
     <use style="fill:#4c72b0;stroke:#4c72b0;" x="125.161933" xlink:href="#m4a8cdecb99" y="142.6805"/>
     <use style="fill:#4c72b0;stroke:#4c72b0;" x="125.161933" xlink:href="#m4a8cdecb99" y="142.6805"/>
     <use style="fill:#4c72b0;stroke:#4c72b0;" x="125.161933" xlink:href="#m4a8cdecb99" y="142.6805"/>
     <use style="fill:#4c72b0;stroke:#4c72b0;" x="116.556017" xlink:href="#m4a8cdecb99" y="115.633333"/>
     <use style="fill:#4c72b0;stroke:#4c72b0;" x="116.556017" xlink:href="#m4a8cdecb99" y="115.633333"/>
     <use style="fill:#4c72b0;stroke:#4c72b0;" x="116.556017" xlink:href="#m4a8cdecb99" y="115.633333"/>
     <use style="fill:#4c72b0;stroke:#4c72b0;" x="116.556017" xlink:href="#m4a8cdecb99" y="115.633333"/>
     <use style="fill:#4c72b0;stroke:#4c72b0;" x="102.78655" xlink:href="#m4a8cdecb99" y="114.158033"/>
     <use style="fill:#4c72b0;stroke:#4c72b0;" x="102.78655" xlink:href="#m4a8cdecb99" y="114.158033"/>
     <use style="fill:#4c72b0;stroke:#4c72b0;" x="102.78655" xlink:href="#m4a8cdecb99" y="114.158033"/>
     <use style="fill:#4c72b0;stroke:#4c72b0;" x="108.195983" xlink:href="#m4a8cdecb99" y="169.481783"/>
     <use style="fill:#4c72b0;stroke:#4c72b0;" x="108.195983" xlink:href="#m4a8cdecb99" y="169.481783"/>
     <use style="fill:#4c72b0;stroke:#4c72b0;" x="108.195983" xlink:href="#m4a8cdecb99" y="169.481783"/>
     <use style="fill:#4c72b0;stroke:#4c72b0;" x="135.734917" xlink:href="#m4a8cdecb99" y="228.493783"/>
     <use style="fill:#4c72b0;stroke:#4c72b0;" x="135.734917" xlink:href="#m4a8cdecb99" y="228.493783"/>
     <use style="fill:#4c72b0;stroke:#4c72b0;" x="135.734917" xlink:href="#m4a8cdecb99" y="228.493783"/>
     <use style="fill:#4c72b0;stroke:#4c72b0;" x="172.8633" xlink:href="#m4a8cdecb99" y="273.490433"/>
     <use style="fill:#4c72b0;stroke:#4c72b0;" x="172.8633" xlink:href="#m4a8cdecb99" y="273.490433"/>
     <use style="fill:#4c72b0;stroke:#4c72b0;" x="172.8633" xlink:href="#m4a8cdecb99" y="273.490433"/>
     <use style="fill:#4c72b0;stroke:#4c72b0;" x="202.123417" xlink:href="#m4a8cdecb99" y="300.783483"/>
     <use style="fill:#4c72b0;stroke:#4c72b0;" x="202.123417" xlink:href="#m4a8cdecb99" y="300.783483"/>
     <use style="fill:#4c72b0;stroke:#4c72b0;" x="202.123417" xlink:href="#m4a8cdecb99" y="300.783483"/>
     <use style="fill:#4c72b0;stroke:#4c72b0;" x="202.123417" xlink:href="#m4a8cdecb99" y="300.783483"/>
     <use style="fill:#4c72b0;stroke:#4c72b0;" x="339.818083" xlink:href="#m4a8cdecb99" y="269.5563"/>
     <use style="fill:#4c72b0;stroke:#4c72b0;" x="339.818083" xlink:href="#m4a8cdecb99" y="269.5563"/>
     <use style="fill:#4c72b0;stroke:#4c72b0;" x="339.818083" xlink:href="#m4a8cdecb99" y="269.5563"/>
     <use style="fill:#4c72b0;stroke:#4c72b0;" x="362.931117" xlink:href="#m4a8cdecb99" y="217.674917"/>
     <use style="fill:#4c72b0;stroke:#4c72b0;" x="362.931117" xlink:href="#m4a8cdecb99" y="217.674917"/>
     <use style="fill:#4c72b0;stroke:#4c72b0;" x="362.931117" xlink:href="#m4a8cdecb99" y="217.674917"/>
     <use style="fill:#4c72b0;stroke:#4c72b0;" x="350.145183" xlink:href="#m4a8cdecb99" y="121.780417"/>
     <use style="fill:#4c72b0;stroke:#4c72b0;" x="350.145183" xlink:href="#m4a8cdecb99" y="121.780417"/>
     <use style="fill:#4c72b0;stroke:#4c72b0;" x="350.145183" xlink:href="#m4a8cdecb99" y="121.780417"/>
     <use style="fill:#4c72b0;stroke:#4c72b0;" x="350.145183" xlink:href="#m4a8cdecb99" y="121.780417"/>
     <use style="fill:#4c72b0;stroke:#4c72b0;" x="297.034383" xlink:href="#m4a8cdecb99" y="63.260183"/>
     <use style="fill:#4c72b0;stroke:#4c72b0;" x="297.034383" xlink:href="#m4a8cdecb99" y="63.260183"/>
     <use style="fill:#4c72b0;stroke:#4c72b0;" x="297.034383" xlink:href="#m4a8cdecb99" y="63.260183"/>
     <use style="fill:#4c72b0;stroke:#4c72b0;" x="290.14965" xlink:href="#m4a8cdecb99" y="67.4402"/>
     <use style="fill:#4c72b0;stroke:#4c72b0;" x="290.14965" xlink:href="#m4a8cdecb99" y="67.4402"/>
     <use style="fill:#4c72b0;stroke:#4c72b0;" x="290.14965" xlink:href="#m4a8cdecb99" y="67.4402"/>
     <use style="fill:#4c72b0;stroke:#4c72b0;" x="311.787383" xlink:href="#m4a8cdecb99" y="199.971317"/>
     <use style="fill:#4c72b0;stroke:#4c72b0;" x="311.787383" xlink:href="#m4a8cdecb99" y="199.971317"/>
     <use style="fill:#4c72b0;stroke:#4c72b0;" x="311.787383" xlink:href="#m4a8cdecb99" y="199.971317"/>
     <use style="fill:#4c72b0;stroke:#4c72b0;" x="258.676583" xlink:href="#m4a8cdecb99" y="300.045833"/>
     <use style="fill:#4c72b0;stroke:#4c72b0;" x="258.676583" xlink:href="#m4a8cdecb99" y="300.045833"/>
     <use style="fill:#4c72b0;stroke:#4c72b0;" x="258.676583" xlink:href="#m4a8cdecb99" y="300.045833"/>
     <use style="fill:#4c72b0;stroke:#4c72b0;" x="151.225567" xlink:href="#m4a8cdecb99" y="291.6858"/>
     <use style="fill:#4c72b0;stroke:#4c72b0;" x="151.225567" xlink:href="#m4a8cdecb99" y="291.6858"/>
     <use style="fill:#4c72b0;stroke:#4c72b0;" x="151.225567" xlink:href="#m4a8cdecb99" y="291.6858"/>
     <use style="fill:#4c72b0;stroke:#4c72b0;" x="159.831483" xlink:href="#m4a8cdecb99" y="273.736317"/>
     <use style="fill:#4c72b0;stroke:#4c72b0;" x="159.831483" xlink:href="#m4a8cdecb99" y="273.736317"/>
     <use style="fill:#4c72b0;stroke:#4c72b0;" x="159.831483" xlink:href="#m4a8cdecb99" y="273.736317"/>
     <use style="fill:#4c72b0;stroke:#4c72b0;" x="166.470333" xlink:href="#m4a8cdecb99" y="254.06565"/>
     <use style="fill:#4c72b0;stroke:#4c72b0;" x="166.470333" xlink:href="#m4a8cdecb99" y="254.06565"/>
     <use style="fill:#4c72b0;stroke:#4c72b0;" x="166.470333" xlink:href="#m4a8cdecb99" y="254.06565"/>
     <use style="fill:#4c72b0;stroke:#4c72b0;" x="170.158583" xlink:href="#m4a8cdecb99" y="235.132633"/>
     <use style="fill:#4c72b0;stroke:#4c72b0;" x="170.158583" xlink:href="#m4a8cdecb99" y="235.132633"/>
     <use style="fill:#4c72b0;stroke:#4c72b0;" x="170.158583" xlink:href="#m4a8cdecb99" y="235.132633"/>
     <use style="fill:#4c72b0;stroke:#4c72b0;" x="170.158583" xlink:href="#m4a8cdecb99" y="235.132633"/>
     <use style="fill:#4c72b0;stroke:#4c72b0;" x="184.6657" xlink:href="#m4a8cdecb99" y="223.330233"/>
     <use style="fill:#4c72b0;stroke:#4c72b0;" x="184.6657" xlink:href="#m4a8cdecb99" y="223.330233"/>
     <use style="fill:#4c72b0;stroke:#4c72b0;" x="184.6657" xlink:href="#m4a8cdecb99" y="223.330233"/>
     <use style="fill:#4c72b0;stroke:#4c72b0;" x="227.695283" xlink:href="#m4a8cdecb99" y="233.903217"/>
     <use style="fill:#4c72b0;stroke:#4c72b0;" x="227.695283" xlink:href="#m4a8cdecb99" y="233.903217"/>
     <use style="fill:#4c72b0;stroke:#4c72b0;" x="227.695283" xlink:href="#m4a8cdecb99" y="233.903217"/>
     <use style="fill:#4c72b0;stroke:#4c72b0;" x="272.691933" xlink:href="#m4a8cdecb99" y="254.311533"/>
     <use style="fill:#4c72b0;stroke:#4c72b0;" x="272.691933" xlink:href="#m4a8cdecb99" y="254.311533"/>
     <use style="fill:#4c72b0;stroke:#4c72b0;" x="272.691933" xlink:href="#m4a8cdecb99" y="254.311533"/>
     <use style="fill:#4c72b0;stroke:#4c72b0;" x="296.7885" xlink:href="#m4a8cdecb99" y="266.6057"/>
     <use style="fill:#4c72b0;stroke:#4c72b0;" x="296.7885" xlink:href="#m4a8cdecb99" y="266.6057"/>
     <use style="fill:#4c72b0;stroke:#4c72b0;" x="296.7885" xlink:href="#m4a8cdecb99" y="266.6057"/>
     <use style="fill:#4c72b0;stroke:#4c72b0;" x="339.5722" xlink:href="#m4a8cdecb99" y="254.8033"/>
     <use style="fill:#4c72b0;stroke:#4c72b0;" x="339.5722" xlink:href="#m4a8cdecb99" y="254.8033"/>
     <use style="fill:#4c72b0;stroke:#4c72b0;" x="339.5722" xlink:href="#m4a8cdecb99" y="254.8033"/>
     <use style="fill:#4c72b0;stroke:#4c72b0;" x="339.5722" xlink:href="#m4a8cdecb99" y="254.8033"/>
     <use style="fill:#4c72b0;stroke:#4c72b0;" x="359.734633" xlink:href="#m4a8cdecb99" y="240.78795"/>
     <use style="fill:#4c72b0;stroke:#4c72b0;" x="359.734633" xlink:href="#m4a8cdecb99" y="240.78795"/>
     <use style="fill:#4c72b0;stroke:#4c72b0;" x="359.734633" xlink:href="#m4a8cdecb99" y="240.78795"/>
     <use style="fill:#4c72b0;stroke:#4c72b0;" x="362.43935" xlink:href="#m4a8cdecb99" y="224.55965"/>
     <use style="fill:#4c72b0;stroke:#4c72b0;" x="362.43935" xlink:href="#m4a8cdecb99" y="224.55965"/>
     <use style="fill:#4c72b0;stroke:#4c72b0;" x="362.43935" xlink:href="#m4a8cdecb99" y="224.55965"/>
     <use style="fill:#4c72b0;stroke:#4c72b0;" x="336.867483" xlink:href="#m4a8cdecb99" y="207.5937"/>
     <use style="fill:#4c72b0;stroke:#4c72b0;" x="336.867483" xlink:href="#m4a8cdecb99" y="207.5937"/>
     <use style="fill:#4c72b0;stroke:#4c72b0;" x="336.867483" xlink:href="#m4a8cdecb99" y="207.5937"/>
     <use style="fill:#4c72b0;stroke:#4c72b0;" x="298.2638" xlink:href="#m4a8cdecb99" y="184.972433"/>
     <use style="fill:#4c72b0;stroke:#4c72b0;" x="298.2638" xlink:href="#m4a8cdecb99" y="184.972433"/>
     <use style="fill:#4c72b0;stroke:#4c72b0;" x="298.2638" xlink:href="#m4a8cdecb99" y="184.972433"/>
     <use style="fill:#4c72b0;stroke:#4c72b0;" x="262.364833" xlink:href="#m4a8cdecb99" y="138.2546"/>
     <use style="fill:#4c72b0;stroke:#4c72b0;" x="262.364833" xlink:href="#m4a8cdecb99" y="138.2546"/>
     <use style="fill:#4c72b0;stroke:#4c72b0;" x="262.364833" xlink:href="#m4a8cdecb99" y="138.2546"/>
     <use style="fill:#4c72b0;stroke:#4c72b0;" x="262.364833" xlink:href="#m4a8cdecb99" y="138.2546"/>
     <use style="fill:#4c72b0;stroke:#4c72b0;" x="233.104717" xlink:href="#m4a8cdecb99" y="71.8661"/>
     <use style="fill:#4c72b0;stroke:#4c72b0;" x="233.104717" xlink:href="#m4a8cdecb99" y="71.8661"/>
     <use style="fill:#4c72b0;stroke:#4c72b0;" x="233.104717" xlink:href="#m4a8cdecb99" y="71.8661"/>
     <use style="fill:#4c72b0;stroke:#4c72b0;" x="235.56355" xlink:href="#m4a8cdecb99" y="34.9836"/>
     <use style="fill:#4c72b0;stroke:#4c72b0;" x="235.56355" xlink:href="#m4a8cdecb99" y="34.9836"/>
     <use style="fill:#4c72b0;stroke:#4c72b0;" x="235.56355" xlink:href="#m4a8cdecb99" y="34.9836"/>
     <use style="fill:#4c72b0;stroke:#4c72b0;" x="261.3813" xlink:href="#m4a8cdecb99" y="50.228367"/>
     <use style="fill:#4c72b0;stroke:#4c72b0;" x="261.3813" xlink:href="#m4a8cdecb99" y="50.228367"/>
     <use style="fill:#4c72b0;stroke:#4c72b0;" x="261.3813" xlink:href="#m4a8cdecb99" y="50.228367"/>
     <use style="fill:#4c72b0;stroke:#4c72b0;" x="283.264917" xlink:href="#m4a8cdecb99" y="90.30735"/>
     <use style="fill:#4c72b0;stroke:#4c72b0;" x="283.264917" xlink:href="#m4a8cdecb99" y="90.30735"/>
     <use style="fill:#4c72b0;stroke:#4c72b0;" x="283.264917" xlink:href="#m4a8cdecb99" y="90.30735"/>
     <use style="fill:#4c72b0;stroke:#4c72b0;" x="315.475633" xlink:href="#m4a8cdecb99" y="133.8287"/>
     <use style="fill:#4c72b0;stroke:#4c72b0;" x="315.475633" xlink:href="#m4a8cdecb99" y="133.8287"/>
     <use style="fill:#4c72b0;stroke:#4c72b0;" x="315.475633" xlink:href="#m4a8cdecb99" y="133.8287"/>
     <use style="fill:#4c72b0;stroke:#4c72b0;" x="315.475633" xlink:href="#m4a8cdecb99" y="133.8287"/>
     <use style="fill:#4c72b0;stroke:#4c72b0;" x="291.62495" xlink:href="#m4a8cdecb99" y="177.841817"/>
     <use style="fill:#4c72b0;stroke:#4c72b0;" x="291.62495" xlink:href="#m4a8cdecb99" y="177.841817"/>
     <use style="fill:#4c72b0;stroke:#4c72b0;" x="291.62495" xlink:href="#m4a8cdecb99" y="177.841817"/>
     <use style="fill:#4c72b0;stroke:#4c72b0;" x="252.775383" xlink:href="#m4a8cdecb99" y="135.304"/>
     <use style="fill:#4c72b0;stroke:#4c72b0;" x="252.775383" xlink:href="#m4a8cdecb99" y="135.304"/>
     <use style="fill:#4c72b0;stroke:#4c72b0;" x="252.775383" xlink:href="#m4a8cdecb99" y="135.304"/>
     <use style="fill:#4c72b0;stroke:#4c72b0;" x="226.219983" xlink:href="#m4a8cdecb99" y="65.719017"/>
     <use style="fill:#4c72b0;stroke:#4c72b0;" x="226.219983" xlink:href="#m4a8cdecb99" y="65.719017"/>
     <use style="fill:#4c72b0;stroke:#4c72b0;" x="226.219983" xlink:href="#m4a8cdecb99" y="65.719017"/>
     <use style="fill:#4c72b0;stroke:#4c72b0;" x="294.821433" xlink:href="#m4a8cdecb99" y="61.539"/>
     <use style="fill:#4c72b0;stroke:#4c72b0;" x="294.821433" xlink:href="#m4a8cdecb99" y="61.539"/>
     <use style="fill:#4c72b0;stroke:#4c72b0;" x="294.821433" xlink:href="#m4a8cdecb99" y="61.539"/>
     <use style="fill:#4c72b0;stroke:#4c72b0;" x="316.70505" xlink:href="#m4a8cdecb99" y="83.422617"/>
     <use style="fill:#4c72b0;stroke:#4c72b0;" x="316.70505" xlink:href="#m4a8cdecb99" y="83.422617"/>
     <use style="fill:#4c72b0;stroke:#4c72b0;" x="316.70505" xlink:href="#m4a8cdecb99" y="83.422617"/>
     <use style="fill:#4c72b0;stroke:#4c72b0;" x="316.70505" xlink:href="#m4a8cdecb99" y="83.422617"/>
     <use style="fill:#4c72b0;stroke:#4c72b0;" x="318.18035" xlink:href="#m4a8cdecb99" y="82.439083"/>
     <use style="fill:#4c72b0;stroke:#4c72b0;" x="318.18035" xlink:href="#m4a8cdecb99" y="82.439083"/>
     <use style="fill:#4c72b0;stroke:#4c72b0;" x="318.18035" xlink:href="#m4a8cdecb99" y="82.439083"/>
     <use style="fill:#4c72b0;stroke:#4c72b0;" x="314.000333" xlink:href="#m4a8cdecb99" y="74.570817"/>
     <use style="fill:#4c72b0;stroke:#4c72b0;" x="314.000333" xlink:href="#m4a8cdecb99" y="74.570817"/>
     <use style="fill:#4c72b0;stroke:#4c72b0;" x="314.000333" xlink:href="#m4a8cdecb99" y="74.570817"/>
     <use style="fill:#4c72b0;stroke:#4c72b0;" x="303.919117" xlink:href="#m4a8cdecb99" y="72.60375"/>
     <use style="fill:#4c72b0;stroke:#4c72b0;" x="303.919117" xlink:href="#m4a8cdecb99" y="72.60375"/>
     <use style="fill:#4c72b0;stroke:#4c72b0;" x="303.919117" xlink:href="#m4a8cdecb99" y="72.60375"/>
     <use style="fill:#4c72b0;stroke:#4c72b0;" x="264.577783" xlink:href="#m4a8cdecb99" y="70.3908"/>
     <use style="fill:#4c72b0;stroke:#4c72b0;" x="264.577783" xlink:href="#m4a8cdecb99" y="70.3908"/>
     <use style="fill:#4c72b0;stroke:#4c72b0;" x="264.577783" xlink:href="#m4a8cdecb99" y="70.3908"/>
     <use style="fill:#4c72b0;stroke:#4c72b0;" x="201.63165" xlink:href="#m4a8cdecb99" y="94.73325"/>
     <use style="fill:#4c72b0;stroke:#4c72b0;" x="201.63165" xlink:href="#m4a8cdecb99" y="94.73325"/>
     <use style="fill:#4c72b0;stroke:#4c72b0;" x="201.63165" xlink:href="#m4a8cdecb99" y="94.73325"/>
     <use style="fill:#4c72b0;stroke:#4c72b0;" x="201.63165" xlink:href="#m4a8cdecb99" y="94.73325"/>
     <use style="fill:#4c72b0;stroke:#4c72b0;" x="249.333017" xlink:href="#m4a8cdecb99" y="89.323817"/>
     <use style="fill:#4c72b0;stroke:#4c72b0;" x="249.333017" xlink:href="#m4a8cdecb99" y="89.323817"/>
     <use style="fill:#4c72b0;stroke:#4c72b0;" x="249.333017" xlink:href="#m4a8cdecb99" y="89.323817"/>
     <use style="fill:#4c72b0;stroke:#4c72b0;" x="299.247333" xlink:href="#m4a8cdecb99" y="69.65315"/>
     <use style="fill:#4c72b0;stroke:#4c72b0;" x="299.247333" xlink:href="#m4a8cdecb99" y="69.65315"/>
     <use style="fill:#4c72b0;stroke:#4c72b0;" x="299.247333" xlink:href="#m4a8cdecb99" y="69.65315"/>
     <use style="fill:#4c72b0;stroke:#4c72b0;" x="274.904883" xlink:href="#m4a8cdecb99" y="80.472017"/>
     <use style="fill:#4c72b0;stroke:#4c72b0;" x="274.904883" xlink:href="#m4a8cdecb99" y="80.472017"/>
     <use style="fill:#4c72b0;stroke:#4c72b0;" x="274.904883" xlink:href="#m4a8cdecb99" y="80.472017"/>
     <use style="fill:#4c72b0;stroke:#4c72b0;" x="211.466983" xlink:href="#m4a8cdecb99" y="103.830933"/>
     <use style="fill:#4c72b0;stroke:#4c72b0;" x="211.466983" xlink:href="#m4a8cdecb99" y="103.830933"/>
     <use style="fill:#4c72b0;stroke:#4c72b0;" x="211.466983" xlink:href="#m4a8cdecb99" y="103.830933"/>
     <use style="fill:#4c72b0;stroke:#4c72b0;" x="108.441867" xlink:href="#m4a8cdecb99" y="154.974667"/>
     <use style="fill:#4c72b0;stroke:#4c72b0;" x="108.441867" xlink:href="#m4a8cdecb99" y="154.974667"/>
     <use style="fill:#4c72b0;stroke:#4c72b0;" x="108.441867" xlink:href="#m4a8cdecb99" y="154.974667"/>
     <use style="fill:#4c72b0;stroke:#4c72b0;" x="108.441867" xlink:href="#m4a8cdecb99" y="154.974667"/>
     <use style="fill:#4c72b0;stroke:#4c72b0;" x="107.458333" xlink:href="#m4a8cdecb99" y="212.75725"/>
     <use style="fill:#4c72b0;stroke:#4c72b0;" x="107.458333" xlink:href="#m4a8cdecb99" y="212.75725"/>
     <use style="fill:#4c72b0;stroke:#4c72b0;" x="107.458333" xlink:href="#m4a8cdecb99" y="212.75725"/>
     <use style="fill:#4c72b0;stroke:#4c72b0;" x="131.063133" xlink:href="#m4a8cdecb99" y="278.653983"/>
     <use style="fill:#4c72b0;stroke:#4c72b0;" x="131.063133" xlink:href="#m4a8cdecb99" y="278.653983"/>
     <use style="fill:#4c72b0;stroke:#4c72b0;" x="131.063133" xlink:href="#m4a8cdecb99" y="278.653983"/>
     <use style="fill:#4c72b0;stroke:#4c72b0;" x="191.796317" xlink:href="#m4a8cdecb99" y="261.44215"/>
     <use style="fill:#4c72b0;stroke:#4c72b0;" x="191.796317" xlink:href="#m4a8cdecb99" y="261.44215"/>
     <use style="fill:#4c72b0;stroke:#4c72b0;" x="191.796317" xlink:href="#m4a8cdecb99" y="261.44215"/>
     <use style="fill:#4c72b0;stroke:#4c72b0;" x="265.315433" xlink:href="#m4a8cdecb99" y="230.214967"/>
     <use style="fill:#4c72b0;stroke:#4c72b0;" x="265.315433" xlink:href="#m4a8cdecb99" y="230.214967"/>
     <use style="fill:#4c72b0;stroke:#4c72b0;" x="265.315433" xlink:href="#m4a8cdecb99" y="230.214967"/>
     <use style="fill:#4c72b0;stroke:#4c72b0;" x="263.102483" xlink:href="#m4a8cdecb99" y="247.672683"/>
     <use style="fill:#4c72b0;stroke:#4c72b0;" x="263.102483" xlink:href="#m4a8cdecb99" y="247.672683"/>
     <use style="fill:#4c72b0;stroke:#4c72b0;" x="263.102483" xlink:href="#m4a8cdecb99" y="247.672683"/>
     <use style="fill:#4c72b0;stroke:#4c72b0;" x="263.102483" xlink:href="#m4a8cdecb99" y="247.672683"/>
     <use style="fill:#4c72b0;stroke:#4c72b0;" x="293.346133" xlink:href="#m4a8cdecb99" y="207.839583"/>
     <use style="fill:#4c72b0;stroke:#4c72b0;" x="293.346133" xlink:href="#m4a8cdecb99" y="207.839583"/>
     <use style="fill:#4c72b0;stroke:#4c72b0;" x="293.346133" xlink:href="#m4a8cdecb99" y="207.839583"/>
     <use style="fill:#4c72b0;stroke:#4c72b0;" x="316.70505" xlink:href="#m4a8cdecb99" y="143.909917"/>
     <use style="fill:#4c72b0;stroke:#4c72b0;" x="316.70505" xlink:href="#m4a8cdecb99" y="143.909917"/>
     <use style="fill:#4c72b0;stroke:#4c72b0;" x="316.70505" xlink:href="#m4a8cdecb99" y="143.909917"/>
     <use style="fill:#4c72b0;stroke:#4c72b0;" x="314.737983" xlink:href="#m4a8cdecb99" y="139.975783"/>
     <use style="fill:#4c72b0;stroke:#4c72b0;" x="314.737983" xlink:href="#m4a8cdecb99" y="139.975783"/>
     <use style="fill:#4c72b0;stroke:#4c72b0;" x="314.737983" xlink:href="#m4a8cdecb99" y="139.975783"/>
     <use style="fill:#4c72b0;stroke:#4c72b0;" x="276.87195" xlink:href="#m4a8cdecb99" y="103.58505"/>
     <use style="fill:#4c72b0;stroke:#4c72b0;" x="276.87195" xlink:href="#m4a8cdecb99" y="103.58505"/>
     <use style="fill:#4c72b0;stroke:#4c72b0;" x="276.87195" xlink:href="#m4a8cdecb99" y="103.58505"/>
     <use style="fill:#4c72b0;stroke:#4c72b0;" x="242.94005" xlink:href="#m4a8cdecb99" y="85.88145"/>
     <use style="fill:#4c72b0;stroke:#4c72b0;" x="242.94005" xlink:href="#m4a8cdecb99" y="85.88145"/>
     <use style="fill:#4c72b0;stroke:#4c72b0;" x="242.94005" xlink:href="#m4a8cdecb99" y="85.88145"/>
     <use style="fill:#4c72b0;stroke:#4c72b0;" x="242.94005" xlink:href="#m4a8cdecb99" y="85.88145"/>
     <use style="fill:#4c72b0;stroke:#4c72b0;" x="169.666817" xlink:href="#m4a8cdecb99" y="80.7179"/>
     <use style="fill:#4c72b0;stroke:#4c72b0;" x="169.666817" xlink:href="#m4a8cdecb99" y="80.7179"/>
     <use style="fill:#4c72b0;stroke:#4c72b0;" x="169.666817" xlink:href="#m4a8cdecb99" y="80.7179"/>
     <use style="fill:#4c72b0;stroke:#4c72b0;" x="135.734917" xlink:href="#m4a8cdecb99" y="135.304"/>
     <use style="fill:#4c72b0;stroke:#4c72b0;" x="135.734917" xlink:href="#m4a8cdecb99" y="135.304"/>
     <use style="fill:#4c72b0;stroke:#4c72b0;" x="135.734917" xlink:href="#m4a8cdecb99" y="135.304"/>
     <use style="fill:#4c72b0;stroke:#4c72b0;" x="139.66905" xlink:href="#m4a8cdecb99" y="187.923033"/>
     <use style="fill:#4c72b0;stroke:#4c72b0;" x="139.66905" xlink:href="#m4a8cdecb99" y="187.923033"/>
     <use style="fill:#4c72b0;stroke:#4c72b0;" x="139.66905" xlink:href="#m4a8cdecb99" y="187.923033"/>
     <use style="fill:#4c72b0;stroke:#4c72b0;" x="137.947867" xlink:href="#m4a8cdecb99" y="260.212733"/>
     <use style="fill:#4c72b0;stroke:#4c72b0;" x="137.947867" xlink:href="#m4a8cdecb99" y="260.212733"/>
     <use style="fill:#4c72b0;stroke:#4c72b0;" x="137.947867" xlink:href="#m4a8cdecb99" y="260.212733"/>
     <use style="fill:#4c72b0;stroke:#4c72b0;" x="132.538433" xlink:href="#m4a8cdecb99" y="292.669333"/>
     <use style="fill:#4c72b0;stroke:#4c72b0;" x="132.538433" xlink:href="#m4a8cdecb99" y="292.669333"/>
     <use style="fill:#4c72b0;stroke:#4c72b0;" x="132.538433" xlink:href="#m4a8cdecb99" y="292.669333"/>
     <use style="fill:#4c72b0;stroke:#4c72b0;" x="132.538433" xlink:href="#m4a8cdecb99" y="292.669333"/>
     <use style="fill:#4c72b0;stroke:#4c72b0;" x="116.06425" xlink:href="#m4a8cdecb99" y="263.6551"/>
     <use style="fill:#4c72b0;stroke:#4c72b0;" x="116.06425" xlink:href="#m4a8cdecb99" y="263.6551"/>
     <use style="fill:#4c72b0;stroke:#4c72b0;" x="116.06425" xlink:href="#m4a8cdecb99" y="263.6551"/>
     <use style="fill:#4c72b0;stroke:#4c72b0;" x="168.4374" xlink:href="#m4a8cdecb99" y="197.758367"/>
     <use style="fill:#4c72b0;stroke:#4c72b0;" x="168.4374" xlink:href="#m4a8cdecb99" y="197.758367"/>
     <use style="fill:#4c72b0;stroke:#4c72b0;" x="168.4374" xlink:href="#m4a8cdecb99" y="197.758367"/>
     <use style="fill:#4c72b0;stroke:#4c72b0;" x="193.763383" xlink:href="#m4a8cdecb99" y="72.111983"/>
     <use style="fill:#4c72b0;stroke:#4c72b0;" x="193.763383" xlink:href="#m4a8cdecb99" y="72.111983"/>
     <use style="fill:#4c72b0;stroke:#4c72b0;" x="193.763383" xlink:href="#m4a8cdecb99" y="72.111983"/>
     <use style="fill:#4c72b0;stroke:#4c72b0;" x="176.55155" xlink:href="#m4a8cdecb99" y="47.769533"/>
     <use style="fill:#4c72b0;stroke:#4c72b0;" x="176.55155" xlink:href="#m4a8cdecb99" y="47.769533"/>
     <use style="fill:#4c72b0;stroke:#4c72b0;" x="176.55155" xlink:href="#m4a8cdecb99" y="47.769533"/>
     <use style="fill:#4c72b0;stroke:#4c72b0;" x="156.143233" xlink:href="#m4a8cdecb99" y="126.206317"/>
     <use style="fill:#4c72b0;stroke:#4c72b0;" x="156.143233" xlink:href="#m4a8cdecb99" y="126.206317"/>
     <use style="fill:#4c72b0;stroke:#4c72b0;" x="156.143233" xlink:href="#m4a8cdecb99" y="126.206317"/>
     <use style="fill:#4c72b0;stroke:#4c72b0;" x="156.143233" xlink:href="#m4a8cdecb99" y="126.206317"/>
     <use style="fill:#4c72b0;stroke:#4c72b0;" x="162.782083" xlink:href="#m4a8cdecb99" y="215.953733"/>
     <use style="fill:#4c72b0;stroke:#4c72b0;" x="162.782083" xlink:href="#m4a8cdecb99" y="215.953733"/>
     <use style="fill:#4c72b0;stroke:#4c72b0;" x="162.782083" xlink:href="#m4a8cdecb99" y="215.953733"/>
     <use style="fill:#4c72b0;stroke:#4c72b0;" x="176.305667" xlink:href="#m4a8cdecb99" y="280.375167"/>
     <use style="fill:#4c72b0;stroke:#4c72b0;" x="176.305667" xlink:href="#m4a8cdecb99" y="280.375167"/>
     <use style="fill:#4c72b0;stroke:#4c72b0;" x="176.305667" xlink:href="#m4a8cdecb99" y="280.375167"/>
     <use style="fill:#4c72b0;stroke:#4c72b0;" x="172.8633" xlink:href="#m4a8cdecb99" y="288.7352"/>
     <use style="fill:#4c72b0;stroke:#4c72b0;" x="172.8633" xlink:href="#m4a8cdecb99" y="288.7352"/>
     <use style="fill:#4c72b0;stroke:#4c72b0;" x="172.8633" xlink:href="#m4a8cdecb99" y="288.7352"/>
     <use style="fill:#4c72b0;stroke:#4c72b0;" x="164.503267" xlink:href="#m4a8cdecb99" y="284.063417"/>
     <use style="fill:#4c72b0;stroke:#4c72b0;" x="164.503267" xlink:href="#m4a8cdecb99" y="284.063417"/>
     <use style="fill:#4c72b0;stroke:#4c72b0;" x="164.503267" xlink:href="#m4a8cdecb99" y="284.063417"/>
     <use style="fill:#4c72b0;stroke:#4c72b0;" x="168.929167" xlink:href="#m4a8cdecb99" y="278.162217"/>
     <use style="fill:#4c72b0;stroke:#4c72b0;" x="168.929167" xlink:href="#m4a8cdecb99" y="278.162217"/>
     <use style="fill:#4c72b0;stroke:#4c72b0;" x="168.929167" xlink:href="#m4a8cdecb99" y="278.162217"/>
     <use style="fill:#4c72b0;stroke:#4c72b0;" x="168.929167" xlink:href="#m4a8cdecb99" y="278.162217"/>
     <use style="fill:#4c72b0;stroke:#4c72b0;" x="169.17505" xlink:href="#m4a8cdecb99" y="274.71985"/>
     <use style="fill:#4c72b0;stroke:#4c72b0;" x="169.17505" xlink:href="#m4a8cdecb99" y="274.71985"/>
     <use style="fill:#4c72b0;stroke:#4c72b0;" x="169.17505" xlink:href="#m4a8cdecb99" y="274.71985"/>
    </g>
   </g>
   <g id="patch_3">
    <path d="M 82.87 312.34 
L 82.87 17.28 
" style="fill:none;stroke:#ffffff;stroke-linecap:square;stroke-linejoin:miter;stroke-width:1.25;"/>
   </g>
   <g id="patch_4">
    <path d="M 377.93 312.34 
L 377.93 17.28 
" style="fill:none;stroke:#ffffff;stroke-linecap:square;stroke-linejoin:miter;stroke-width:1.25;"/>
   </g>
   <g id="patch_5">
    <path d="M 82.87 312.34 
L 377.93 312.34 
" style="fill:none;stroke:#ffffff;stroke-linecap:square;stroke-linejoin:miter;stroke-width:1.25;"/>
   </g>
   <g id="patch_6">
    <path d="M 82.87 17.28 
L 377.93 17.28 
" style="fill:none;stroke:#ffffff;stroke-linecap:square;stroke-linejoin:miter;stroke-width:1.25;"/>
   </g>
  </g>
 </g>
 <defs>
  <clipPath id="p593a096737">
   <rect height="295.06" width="295.06" x="82.87" y="17.28"/>
  </clipPath>
 </defs>
</svg>
